<?xml version="1.0" standalone="no"?>
<!DOCTYPE svg PUBLIC "-//W3C//DTD SVG 20010904//EN"
 "http://www.w3.org/TR/2001/REC-SVG-20010904/DTD/svg10.dtd">
<svg version="1.0" xmlns="http://www.w3.org/2000/svg"
 width="612.000000pt" height="408.000000pt" viewBox="0 0 612.000000 408.000000"
 preserveAspectRatio="xMidYMid meet">

<g transform="translate(0.000000,408.000000) scale(0.100000,-0.100000)"
fill="#000000" stroke="none">
<path d="M4890 2390 l0 -500 165 0 165 0 0 138 1 137 66 -137 66 -138 175 0
c152 0 173 2 168 15 -3 9 -48 87 -101 175 -52 88 -95 165 -95 171 0 7 35 77
79 158 43 80 84 156 90 169 l12 22 -174 0 -175 0 -53 -129 -54 -130 -5 272 -5
272 -162 3 -163 2 0 -500z"/>
<path d="M60 2360 l0 -470 175 0 175 0 0 258 c0 141 4 250 9 242 4 -8 41 -124
81 -257 l74 -243 142 0 143 0 25 83 c14 45 50 161 80 257 l55 175 0 -257 1
-258 175 0 175 0 0 470 0 470 -248 0 -249 0 -58 -192 c-92 -308 -96 -320 -100
-316 -1 1 -22 66 -45 143 -23 77 -57 191 -76 253 l-35 112 -250 0 -249 0 0
-470z"/>
<path d="M1715 2603 c-51 -19 -140 -67 -149 -81 -4 -7 81 -151 103 -175 4 -4
28 4 52 18 47 27 97 32 132 14 28 -15 67 -50 67 -61 0 -4 -37 -8 -83 -8 -149
0 -243 -27 -299 -87 -36 -37 -48 -73 -48 -138 0 -66 10 -92 52 -140 45 -52 99
-75 176 -75 70 0 109 15 158 62 l32 30 12 -36 12 -36 154 0 155 0 -3 228 c-3
226 -3 227 -31 284 -38 76 -107 145 -186 181 -83 39 -226 48 -306 20z m205
-423 c0 -40 -28 -89 -54 -96 -68 -17 -78 73 -12 102 45 19 66 18 66 -6z"/>
<path d="M3377 2610 c-60 -16 -167 -76 -167 -95 0 -6 100 -175 104 -175 0 0
23 11 50 25 56 28 92 31 141 11 28 -12 55 -41 55 -59 0 -2 -53 -7 -117 -10
-127 -5 -185 -21 -241 -64 -96 -73 -95 -240 2 -320 45 -36 96 -53 164 -53 66
0 99 13 144 57 l37 36 11 -27 c5 -15 10 -32 10 -37 0 -5 66 -9 156 -9 l155 0
-3 233 -3 232 -34 63 c-42 77 -94 125 -180 165 -56 27 -79 32 -156 34 -49 1
-107 -2 -128 -7z m180 -451 c-7 -51 -33 -81 -66 -77 -37 4 -52 50 -25 79 21
24 49 37 78 38 16 1 18 -4 13 -40z"/>
<path d="M4445 2606 c-17 -7 -45 -28 -63 -46 -37 -36 -36 -36 -49 5 l-10 30
-156 3 -157 3 0 -356 0 -355 159 0 160 0 3 209 c3 189 5 211 22 230 24 27 48
27 72 0 17 -19 19 -41 22 -230 l3 -209 160 0 159 0 0 203 c0 289 -19 387 -88
461 -56 60 -165 84 -237 52z"/>
<path d="M2412 2268 c61 -183 114 -344 118 -358 9 -33 -8 -85 -37 -117 -20
-21 -31 -25 -62 -20 l-38 5 -32 -104 c-17 -57 -34 -110 -37 -117 -10 -26 91
-61 176 -61 126 0 214 59 279 187 26 52 311 884 311 909 0 4 -74 8 -164 8
l-164 0 -10 -62 c-6 -35 -18 -112 -28 -173 -9 -60 -20 -113 -24 -118 -3 -4
-19 74 -35 173 l-28 180 -167 0 -168 0 110 -332z"/>
<path d="M5760 2020 l0 -130 140 0 140 0 0 130 0 130 -140 0 -140 0 0 -130z"/>
</g>
</svg>
